<svg id="visual" viewBox="0 0 900 600" width="900" height="600" xmlns="http://www.w3.org/2000/svg" xmlns:xlink="http://www.w3.org/1999/xlink" version="1.1"><path d="M0 140L21.5 135.5C43 131 86 122 128.8 114C171.7 106 214.3 99 257.2 100.5C300 102 343 112 385.8 115.2C428.7 118.3 471.3 114.7 514.2 110.7C557 106.7 600 102.3 642.8 101.3C685.7 100.3 728.3 102.7 771.2 109.5C814 116.3 857 127.7 878.5 133.3L900 139L900 0L878.5 0C857 0 814 0 771.2 0C728.3 0 685.7 0 642.8 0C600 0 557 0 514.2 0C471.3 0 428.7 0 385.8 0C343 0 300 0 257.2 0C214.3 0 171.7 0 128.8 0C86 0 43 0 21.5 0L0 0Z" fill="#ff0000"></path><path d="M0 116L21.5 112.3C43 108.7 86 101.3 128.8 96.2C171.7 91 214.3 88 257.2 91.8C300 95.7 343 106.3 385.8 111.8C428.7 117.3 471.3 117.7 514.2 114.3C557 111 600 104 642.8 102.7C685.7 101.3 728.3 105.7 771.2 102.5C814 99.3 857 88.7 878.5 83.3L900 78L900 0L878.5 0C857 0 814 0 771.2 0C728.3 0 685.7 0 642.8 0C600 0 557 0 514.2 0C471.3 0 428.7 0 385.8 0C343 0 300 0 257.2 0C214.3 0 171.7 0 128.8 0C86 0 43 0 21.5 0L0 0Z" fill="#d10009"></path><path d="M0 59L21.5 61.3C43 63.7 86 68.3 128.8 69C171.7 69.7 214.3 66.3 257.2 63.8C300 61.3 343 59.7 385.8 63.8C428.7 68 471.3 78 514.2 82.7C557 87.3 600 86.7 642.8 82C685.7 77.3 728.3 68.7 771.2 65.3C814 62 857 64 878.5 65L900 66L900 0L878.5 0C857 0 814 0 771.2 0C728.3 0 685.7 0 642.8 0C600 0 557 0 514.2 0C471.3 0 428.7 0 385.8 0C343 0 300 0 257.2 0C214.3 0 171.7 0 128.8 0C86 0 43 0 21.5 0L0 0Z" fill="#a4000c"></path><path d="M0 39L21.5 43.7C43 48.3 86 57.7 128.8 61.8C171.7 66 214.3 65 257.2 64.8C300 64.7 343 65.3 385.8 61.8C428.7 58.3 471.3 50.7 514.2 47.3C557 44 600 45 642.8 49.5C685.7 54 728.3 62 771.2 60.2C814 58.3 857 46.7 878.5 40.8L900 35L900 0L878.5 0C857 0 814 0 771.2 0C728.3 0 685.7 0 642.8 0C600 0 557 0 514.2 0C471.3 0 428.7 0 385.8 0C343 0 300 0 257.2 0C214.3 0 171.7 0 128.8 0C86 0 43 0 21.5 0L0 0Z" fill="#79000a"></path><path d="M0 15L21.5 15.2C43 15.3 86 15.7 128.8 15.8C171.7 16 214.3 16 257.2 20.5C300 25 343 34 385.8 38.5C428.7 43 471.3 43 514.2 40.3C557 37.7 600 32.3 642.8 29.5C685.7 26.7 728.3 26.3 771.2 25.8C814 25.3 857 24.7 878.5 24.3L900 24L900 0L878.5 0C857 0 814 0 771.2 0C728.3 0 685.7 0 642.8 0C600 0 557 0 514.2 0C471.3 0 428.7 0 385.8 0C343 0 300 0 257.2 0C214.3 0 171.7 0 128.8 0C86 0 43 0 21.5 0L0 0Z" fill="#500000"></path></svg>